<?xml version="1.0" standalone="no"?>
<!DOCTYPE svg PUBLIC "-//W3C//DTD SVG 20010904//EN"
 "http://www.w3.org/TR/2001/REC-SVG-20010904/DTD/svg10.dtd">
<svg version="1.0" xmlns="http://www.w3.org/2000/svg"
 width="700.000000pt" height="700.000000pt" viewBox="0 0 700.000000 700.000000"
 preserveAspectRatio="xMidYMid meet">
<metadata>
Created by potrace 1.14, written by Peter Selinger 2001-2017
</metadata>
<g transform="translate(0.000000,700.000000) scale(0.100000,-0.100000)"
fill="#000000" stroke="none">
<path d="M3425 5242 c-1298 -456 -2369 -833 -2380 -839 -29 -16 -70 -62 -91
-103 -25 -47 -25 -152 0 -200 43 -83 26 -74 1105 -554 l1028 -457 457 -1028
c481 -1083 471 -1063 556 -1107 48 -25 153 -25 200 0 44 23 88 63 105 96 7 14
385 1089 840 2389 800 2285 827 2366 822 2419 -12 117 -101 201 -219 208 -62
3 -117 -16 -2423 -824z m644 -838 l-856 -856 -703 313 c-387 172 -698 315
-692 317 7 2 704 246 1550 542 845 297 1541 539 1547 539 5 1 -375 -384 -846
-855z m655 -1026 c-299 -854 -545 -1557 -547 -1562 -2 -5 -144 307 -316 694
l-313 703 859 859 c472 472 858 858 859 858 1 0 -244 -699 -542 -1552z"/>
</g>
</svg>
